<?xml version="1.0" encoding="utf-8"?>
<!-- Generator: Adobe Illustrator 16.0.0, SVG Export Plug-In . SVG Version: 6.00 Build 0)  -->
<!DOCTYPE svg PUBLIC "-//W3C//DTD SVG 1.1//EN" "http://www.w3.org/Graphics/SVG/1.1/DTD/svg11.dtd">
<svg version="1.1" id="_x36__1_" xmlns="http://www.w3.org/2000/svg" xmlns:xlink="http://www.w3.org/1999/xlink" x="0px" y="0px"
	 width="368px" height="84.934px" viewBox="0 0 368 84.934" enable-background="new 0 0 368 84.934" xml:space="preserve">
<g id="LOOK">
	<text transform="matrix(1.0003 0 0 1 94.3887 57.2668)" font-family="'CenturyGothic'" font-size="66.6667">LOOK</text>
</g>
<g>
	<path fill-rule="evenodd" clip-rule="evenodd" fill="#231F20" d="M290.246,45.627c0.394,5.298,7.792,12.649,17.349,17.346H78.521
		c-13.631-3.621-26.077-8.076-34.509-13.533H29.905c8.611,5.112,19.383,9.765,31.98,13.533H50.64
		c-13.627-3.621-26.073-8.076-34.509-13.533H2.027c8.607,5.112,19.383,9.765,31.98,13.533H0v3.614h33.952
		C21.49,70.303,11.055,74.916,2.187,80.125h13.944c8.836-5.346,20.862-9.917,34.445-13.538h11.257
		c-12.47,3.716-22.901,8.329-31.77,13.538h13.949c8.833-5.346,20.862-9.917,34.445-13.538h229.278
		c-9.738,4.838-16.302,11.63-17.49,17.35C306.89,76.081,343.259,68.579,368,64.78C343.259,60.812,305.987,53.737,290.246,45.627z"/>
</g>
</svg>
